{
    "patcher": {
        "fileversion": 1,
        "appversion": {
            "major": 9,
            "minor": 1,
            "revision": 2,
            "architecture": "x64",
            "modernui": 1
        },
        "classnamespace": "box",
        "rect": [ 34.0, 91.0, 1326.0, 646.0 ],
        "boxes": [
            {
                "box": {
                    "candycane": 3,
                    "compatibility": 1,
                    "ghostbar": 3,
                    "id": "obj-7",
                    "maxclass": "multislider",
                    "numinlets": 1,
                    "numoutlets": 2,
                    "outlettype": [ "", "" ],
                    "parameter_enable": 0,
                    "patching_rect": [ 271.0, 568.0, 91.0, 55.0 ],
                    "setminmax": [ 0.0, 1.0 ],
                    "setstyle": 3,
                    "signed": 1,
                    "spacing": 4
                }
            },
            {
                "box": {
                    "id": "obj-1",
                    "maxclass": "newobj",
                    "numinlets": 1,
                    "numoutlets": 1,
                    "outlettype": [ "" ],
                    "patcher": {
                        "fileversion": 1,
                        "appversion": {
                            "major": 9,
                            "minor": 1,
                            "revision": 2,
                            "architecture": "x64",
                            "modernui": 1
                        },
                        "classnamespace": "box",
                        "rect": [ 59.0, 110.0, 902.0, 425.0 ],
                        "visible": 1,
                        "boxes": [
                            {
                                "box": {
                                    "id": "obj-13",
                                    "maxclass": "comment",
                                    "numinlets": 1,
                                    "numoutlets": 0,
                                    "patching_rect": [ 102.0, 44.0, 274.0, 20.0 ],
                                    "text": "peak envelope follower with gated hold and decay"
                                }
                            },
                            {
                                "box": {
                                    "id": "obj-11",
                                    "maxclass": "message",
                                    "numinlets": 2,
                                    "numoutlets": 1,
                                    "outlettype": [ "" ],
                                    "patching_rect": [ 264.0, 171.0, 32.0, 22.0 ],
                                    "text": "print"
                                }
                            },
                            {
                                "box": {
                                    "id": "obj-7",
                                    "maxclass": "newobj",
                                    "numinlets": 2,
                                    "numoutlets": 2,
                                    "outlettype": [ "", "" ],
                                    "patching_rect": [ 44.0, 240.0, 38.0, 22.0 ],
                                    "text": "zl.reg"
                                }
                            },
                            {
                                "box": {
                                    "id": "obj-6",
                                    "maxclass": "toggle",
                                    "numinlets": 1,
                                    "numoutlets": 1,
                                    "outlettype": [ "int" ],
                                    "parameter_enable": 0,
                                    "patching_rect": [ 102.0, 125.0, 24.0, 24.0 ]
                                }
                            },
                            {
                                "box": {
                                    "id": "obj-4",
                                    "maxclass": "newobj",
                                    "numinlets": 2,
                                    "numoutlets": 1,
                                    "outlettype": [ "bang" ],
                                    "patching_rect": [ 102.0, 171.0, 119.0, 22.0 ],
                                    "text": "qmetro 10 @active 1"
                                }
                            },
                            {
                                "box": {
                                    "comment": "",
                                    "id": "obj-3",
                                    "index": 1,
                                    "maxclass": "outlet",
                                    "numinlets": 1,
                                    "numoutlets": 0,
                                    "patching_rect": [ 44.0, 333.0, 30.0, 30.0 ]
                                }
                            },
                            {
                                "box": {
                                    "id": "obj-2",
                                    "maxclass": "newobj",
                                    "numinlets": 1,
                                    "numoutlets": 2,
                                    "outlettype": [ "", "" ],
                                    "patching_rect": [ 44.0, 286.0, 68.0, 22.0 ],
                                    "saved_object_attributes": {
                                        "filename": "energy.js",
                                        "parameter_enable": 0
                                    },
                                    "text": "js energy.js"
                                }
                            },
                            {
                                "box": {
                                    "comment": "",
                                    "id": "obj-1",
                                    "index": 1,
                                    "maxclass": "inlet",
                                    "numinlets": 0,
                                    "numoutlets": 1,
                                    "outlettype": [ "" ],
                                    "patching_rect": [ 63.0, 39.0, 30.0, 30.0 ]
                                }
                            }
                        ],
                        "lines": [
                            {
                                "patchline": {
                                    "destination": [ "obj-7", 1 ],
                                    "midpoints": [ 72.5, 72.0, 72.5, 72.0 ],
                                    "source": [ "obj-1", 0 ]
                                }
                            },
                            {
                                "patchline": {
                                    "destination": [ "obj-2", 0 ],
                                    "midpoints": [ 273.5, 273.0, 53.5, 273.0 ],
                                    "source": [ "obj-11", 0 ]
                                }
                            },
                            {
                                "patchline": {
                                    "destination": [ "obj-3", 0 ],
                                    "midpoints": [ 53.5, 309.0, 53.5, 309.0 ],
                                    "source": [ "obj-2", 0 ]
                                }
                            },
                            {
                                "patchline": {
                                    "destination": [ "obj-7", 0 ],
                                    "midpoints": [ 111.5, 225.0, 53.5, 225.0 ],
                                    "source": [ "obj-4", 0 ]
                                }
                            },
                            {
                                "patchline": {
                                    "destination": [ "obj-4", 0 ],
                                    "midpoints": [ 111.5, 150.0, 111.5, 150.0 ],
                                    "source": [ "obj-6", 0 ]
                                }
                            },
                            {
                                "patchline": {
                                    "destination": [ "obj-2", 0 ],
                                    "midpoints": [ 53.5, 264.0, 53.5, 264.0 ],
                                    "source": [ "obj-7", 0 ]
                                }
                            }
                        ]
                    },
                    "patching_rect": [ 271.0, 535.0, 55.0, 22.0 ],
                    "text": "p energy"
                }
            },
            {
                "box": {
                    "id": "obj-87",
                    "maxclass": "number",
                    "numinlets": 1,
                    "numoutlets": 2,
                    "outlettype": [ "", "bang" ],
                    "parameter_enable": 0,
                    "patching_rect": [ 611.0, 291.0, 50.0, 22.0 ]
                }
            },
            {
                "box": {
                    "id": "obj-86",
                    "maxclass": "comment",
                    "numinlets": 1,
                    "numoutlets": 0,
                    "patching_rect": [ 670.0, 292.0, 229.0, 20.0 ],
                    "text": "mA estimate consumption (Default = 150)"
                }
            },
            {
                "box": {
                    "id": "obj-68",
                    "maxclass": "toggle",
                    "numinlets": 1,
                    "numoutlets": 1,
                    "outlettype": [ "int" ],
                    "parameter_enable": 0,
                    "patching_rect": [ 1080.5, 290.0, 24.0, 24.0 ]
                }
            },
            {
                "box": {
                    "id": "obj-66",
                    "maxclass": "newobj",
                    "numinlets": 1,
                    "numoutlets": 0,
                    "patching_rect": [ 359.0, 252.0, 91.0, 22.0 ],
                    "text": "print @popup 1"
                }
            },
            {
                "box": {
                    "id": "obj-61",
                    "linecount": 4,
                    "maxclass": "comment",
                    "numinlets": 1,
                    "numoutlets": 0,
                    "patching_rect": [ 1119.0, 272.0, 134.0, 60.0 ],
                    "text": "LED\n\n• /led R G B brightness\n• /led 0/1 = OFF/Default"
                }
            },
            {
                "box": {
                    "id": "obj-59",
                    "maxclass": "message",
                    "numinlets": 2,
                    "numoutlets": 1,
                    "outlettype": [ "" ],
                    "patching_rect": [ 1080.5, 353.0, 45.0, 22.0 ],
                    "text": "/led $1"
                }
            },
            {
                "box": {
                    "id": "obj-54",
                    "linecount": 3,
                    "maxclass": "comment",
                    "numinlets": 1,
                    "numoutlets": 0,
                    "patching_rect": [ 453.0, 392.0, 69.0, 47.0 ],
                    "text": "BUTTONS\n\nUse GPIOs"
                }
            },
            {
                "box": {
                    "id": "obj-53",
                    "maxclass": "comment",
                    "numinlets": 1,
                    "numoutlets": 0,
                    "patching_rect": [ 197.5, 501.0, 49.0, 20.0 ],
                    "text": "EULER"
                }
            },
            {
                "box": {
                    "id": "obj-51",
                    "maxclass": "message",
                    "numinlets": 2,
                    "numoutlets": 1,
                    "outlettype": [ "" ],
                    "patching_rect": [ 1139.0, 353.0, 81.0, 22.0 ],
                    "text": "/led 255 0 0 1"
                }
            },
            {
                "box": {
                    "id": "obj-39",
                    "maxclass": "newobj",
                    "numinlets": 1,
                    "numoutlets": 1,
                    "outlettype": [ "" ],
                    "patching_rect": [ 153.0, 353.0, 91.0, 22.0 ],
                    "text": "vexpr $f1 / 180."
                }
            },
            {
                "box": {
                    "candycane": 3,
                    "compatibility": 1,
                    "contdata": 1,
                    "ghostbar": 3,
                    "id": "obj-37",
                    "maxclass": "multislider",
                    "numinlets": 1,
                    "numoutlets": 2,
                    "orientation": 0,
                    "outlettype": [ "", "" ],
                    "parameter_enable": 0,
                    "patching_rect": [ 153.0, 394.0, 91.0, 99.0 ],
                    "setstyle": 1,
                    "signed": 1,
                    "size": 3,
                    "spacing": 4
                }
            },
            {
                "box": {
                    "id": "obj-130",
                    "linecount": 3,
                    "maxclass": "comment",
                    "numinlets": 1,
                    "numoutlets": 0,
                    "patching_rect": [ 397.0, 501.0, 144.0, 47.0 ],
                    "text": "LIGHT\n\nProximity, White, Ambient"
                }
            },
            {
                "box": {
                    "dontreplace": 1,
                    "id": "obj-124",
                    "maxclass": "message",
                    "numinlets": 2,
                    "numoutlets": 1,
                    "outlettype": [ "" ],
                    "patching_rect": [ 390.0, 471.0, 158.0, 22.0 ],
                    "text": "1791 309 584"
                }
            },
            {
                "box": {
                    "id": "obj-122",
                    "maxclass": "comment",
                    "numinlets": 1,
                    "numoutlets": 0,
                    "patching_rect": [ 901.0, 472.0, 38.0, 20.0 ],
                    "text": "h.mm"
                }
            },
            {
                "box": {
                    "id": "obj-118",
                    "maxclass": "message",
                    "numinlets": 2,
                    "numoutlets": 1,
                    "outlettype": [ "" ],
                    "patching_rect": [ 1242.0, 353.0, 46.0, 22.0 ],
                    "text": "/reboot"
                }
            },
            {
                "box": {
                    "id": "obj-116",
                    "maxclass": "newobj",
                    "numinlets": 1,
                    "numoutlets": 1,
                    "outlettype": [ "" ],
                    "patching_rect": [ 991.0, 353.0, 79.0, 22.0 ],
                    "text": "prepend host"
                }
            },
            {
                "box": {
                    "id": "obj-113",
                    "maxclass": "newobj",
                    "numinlets": 1,
                    "numoutlets": 0,
                    "patching_rect": [ 991.0, 410.0, 135.0, 22.0 ],
                    "text": "udpsend localhost 9000"
                }
            },
            {
                "box": {
                    "id": "obj-109",
                    "linecount": 3,
                    "maxclass": "comment",
                    "numinlets": 1,
                    "numoutlets": 0,
                    "patching_rect": [ 895.0, 389.0, 64.0, 47.0 ],
                    "text": "ELAPSED\n\nh mm ss"
                }
            },
            {
                "box": {
                    "id": "obj-107",
                    "maxclass": "newobj",
                    "numinlets": 1,
                    "numoutlets": 1,
                    "outlettype": [ "" ],
                    "patcher": {
                        "fileversion": 1,
                        "appversion": {
                            "major": 9,
                            "minor": 1,
                            "revision": 2,
                            "architecture": "x64",
                            "modernui": 1
                        },
                        "classnamespace": "box",
                        "rect": [ 59.0, 110.0, 211.0, 341.0 ],
                        "boxes": [
                            {
                                "box": {
                                    "id": "obj-104",
                                    "maxclass": "newobj",
                                    "numinlets": 2,
                                    "numoutlets": 2,
                                    "outlettype": [ "", "" ],
                                    "patching_rect": [ 50.0, 193.49999999999997, 55.0, 22.0 ],
                                    "text": "zl.slice 3"
                                }
                            },
                            {
                                "box": {
                                    "id": "obj-101",
                                    "maxclass": "newobj",
                                    "numinlets": 2,
                                    "numoutlets": 1,
                                    "outlettype": [ "int" ],
                                    "patching_rect": [ 50.0, 131.16666666666666, 43.0, 22.0 ],
                                    "text": "* 1000"
                                }
                            },
                            {
                                "box": {
                                    "id": "obj-95",
                                    "maxclass": "newobj",
                                    "numinlets": 1,
                                    "numoutlets": 1,
                                    "outlettype": [ "" ],
                                    "patching_rect": [ 50.0, 162.33333333333331, 129.0, 22.0 ],
                                    "text": "translate ms hh:mm:ss"
                                }
                            },
                            {
                                "box": {
                                    "id": "obj-94",
                                    "maxclass": "number",
                                    "numinlets": 1,
                                    "numoutlets": 2,
                                    "outlettype": [ "", "bang" ],
                                    "parameter_enable": 0,
                                    "patching_rect": [ 50.0, 100.0, 50.0, 22.0 ]
                                }
                            },
                            {
                                "box": {
                                    "comment": "",
                                    "id": "obj-105",
                                    "index": 1,
                                    "maxclass": "inlet",
                                    "numinlets": 0,
                                    "numoutlets": 1,
                                    "outlettype": [ "" ],
                                    "patching_rect": [ 50.0, 40.0, 30.0, 30.0 ]
                                }
                            },
                            {
                                "box": {
                                    "comment": "",
                                    "id": "obj-106",
                                    "index": 1,
                                    "maxclass": "outlet",
                                    "numinlets": 1,
                                    "numoutlets": 0,
                                    "patching_rect": [ 50.0, 275.5, 30.0, 30.0 ]
                                }
                            }
                        ],
                        "lines": [
                            {
                                "patchline": {
                                    "destination": [ "obj-95", 0 ],
                                    "midpoints": [ 59.5, 156.0, 59.5, 156.0 ],
                                    "source": [ "obj-101", 0 ]
                                }
                            },
                            {
                                "patchline": {
                                    "destination": [ "obj-106", 0 ],
                                    "midpoints": [ 59.5, 216.0, 59.5, 216.0 ],
                                    "source": [ "obj-104", 0 ]
                                }
                            },
                            {
                                "patchline": {
                                    "destination": [ "obj-94", 0 ],
                                    "midpoints": [ 59.5, 72.0, 59.5, 72.0 ],
                                    "source": [ "obj-105", 0 ]
                                }
                            },
                            {
                                "patchline": {
                                    "destination": [ "obj-101", 0 ],
                                    "midpoints": [ 59.5, 123.0, 59.5, 123.0 ],
                                    "source": [ "obj-94", 0 ]
                                }
                            },
                            {
                                "patchline": {
                                    "destination": [ "obj-104", 0 ],
                                    "midpoints": [ 59.5, 186.0, 59.5, 186.0 ],
                                    "source": [ "obj-95", 0 ]
                                }
                            }
                        ]
                    },
                    "patching_rect": [ 860.0, 353.0, 61.0, 22.0 ],
                    "text": "p elapsed"
                }
            },
            {
                "box": {
                    "dontreplace": 1,
                    "id": "obj-103",
                    "maxclass": "message",
                    "numinlets": 2,
                    "numoutlets": 1,
                    "outlettype": [ "" ],
                    "patching_rect": [ 829.0, 389.0, 50.0, 22.0 ],
                    "text": "0 1 49"
                }
            },
            {
                "box": {
                    "id": "obj-90",
                    "maxclass": "comment",
                    "numinlets": 1,
                    "numoutlets": 0,
                    "patching_rect": [ 645.0, 253.0, 164.0, 20.0 ],
                    "text": "mAh capacity (Default = 150)"
                }
            },
            {
                "box": {
                    "id": "obj-88",
                    "maxclass": "number",
                    "numinlets": 1,
                    "numoutlets": 2,
                    "outlettype": [ "", "bang" ],
                    "parameter_enable": 0,
                    "patching_rect": [ 593.0, 252.0, 50.0, 22.0 ]
                }
            },
            {
                "box": {
                    "id": "obj-49",
                    "maxclass": "newobj",
                    "numinlets": 3,
                    "numoutlets": 4,
                    "outlettype": [ "", "", "", "" ],
                    "patcher": {
                        "fileversion": 1,
                        "appversion": {
                            "major": 9,
                            "minor": 1,
                            "revision": 2,
                            "architecture": "x64",
                            "modernui": 1
                        },
                        "classnamespace": "box",
                        "rect": [ 59.0, 110.0, 639.0, 736.0 ],
                        "boxes": [
                            {
                                "box": {
                                    "id": "obj-25",
                                    "maxclass": "number",
                                    "numinlets": 1,
                                    "numoutlets": 2,
                                    "outlettype": [ "", "bang" ],
                                    "parameter_enable": 0,
                                    "patching_rect": [ 176.0, 398.0, 50.0, 22.0 ]
                                }
                            },
                            {
                                "box": {
                                    "comment": "",
                                    "id": "obj-20",
                                    "index": 3,
                                    "maxclass": "inlet",
                                    "numinlets": 0,
                                    "numoutlets": 1,
                                    "outlettype": [ "" ],
                                    "patching_rect": [ 470.0, 39.0, 30.0, 30.0 ]
                                }
                            },
                            {
                                "box": {
                                    "id": "obj-21",
                                    "maxclass": "comment",
                                    "numinlets": 1,
                                    "numoutlets": 0,
                                    "patching_rect": [ 508.0, 44.0, 97.0, 20.0 ],
                                    "text": "mA consumption"
                                }
                            },
                            {
                                "box": {
                                    "id": "obj-19",
                                    "maxclass": "newobj",
                                    "numinlets": 1,
                                    "numoutlets": 2,
                                    "outlettype": [ "bang", "float" ],
                                    "patching_rect": [ 470.0, 502.0, 29.5, 22.0 ],
                                    "text": "t b f"
                                }
                            },
                            {
                                "box": {
                                    "id": "obj-18",
                                    "maxclass": "newobj",
                                    "numinlets": 1,
                                    "numoutlets": 2,
                                    "outlettype": [ "bang", "float" ],
                                    "patching_rect": [ 330.0, 282.0, 29.5, 22.0 ],
                                    "text": "t b f"
                                }
                            },
                            {
                                "box": {
                                    "comment": "",
                                    "id": "obj-15",
                                    "index": 4,
                                    "maxclass": "outlet",
                                    "numinlets": 1,
                                    "numoutlets": 0,
                                    "patching_rect": [ 330.0, 663.0, 30.0, 30.0 ]
                                }
                            },
                            {
                                "box": {
                                    "comment": "",
                                    "id": "obj-14",
                                    "index": 2,
                                    "maxclass": "inlet",
                                    "numinlets": 0,
                                    "numoutlets": 1,
                                    "outlettype": [ "" ],
                                    "patching_rect": [ 330.0, 39.0, 30.0, 30.0 ]
                                }
                            },
                            {
                                "box": {
                                    "id": "obj-13",
                                    "maxclass": "newobj",
                                    "numinlets": 2,
                                    "numoutlets": 1,
                                    "outlettype": [ "float" ],
                                    "patching_rect": [ 50.0, 187.0, 45.0, 22.0 ],
                                    "text": "/ 1000."
                                }
                            },
                            {
                                "box": {
                                    "comment": "",
                                    "id": "obj-12",
                                    "index": 3,
                                    "maxclass": "outlet",
                                    "numinlets": 1,
                                    "numoutlets": 0,
                                    "patching_rect": [ 267.0, 663.0, 30.0, 30.0 ]
                                }
                            },
                            {
                                "box": {
                                    "id": "obj-11",
                                    "maxclass": "newobj",
                                    "numinlets": 1,
                                    "numoutlets": 4,
                                    "outlettype": [ "", "", "", "" ],
                                    "patching_rect": [ 50.0, 111.0, 51.0, 22.0 ],
                                    "text": "unjoin 3"
                                }
                            },
                            {
                                "box": {
                                    "comment": "",
                                    "id": "obj-9",
                                    "index": 2,
                                    "maxclass": "outlet",
                                    "numinlets": 1,
                                    "numoutlets": 0,
                                    "patching_rect": [ 176.0, 663.0, 30.0, 30.0 ]
                                }
                            },
                            {
                                "box": {
                                    "id": "obj-6",
                                    "maxclass": "number",
                                    "numinlets": 1,
                                    "numoutlets": 2,
                                    "outlettype": [ "", "bang" ],
                                    "parameter_enable": 0,
                                    "patching_rect": [ 50.0, 398.0, 50.0, 22.0 ]
                                }
                            },
                            {
                                "box": {
                                    "format": 6,
                                    "id": "obj-4",
                                    "maxclass": "flonum",
                                    "numinlets": 1,
                                    "numoutlets": 2,
                                    "outlettype": [ "", "bang" ],
                                    "parameter_enable": 0,
                                    "patching_rect": [ 50.0, 323.0, 50.0, 22.0 ]
                                }
                            },
                            {
                                "box": {
                                    "format": 6,
                                    "id": "obj-2",
                                    "maxclass": "flonum",
                                    "numinlets": 1,
                                    "numoutlets": 2,
                                    "outlettype": [ "", "bang" ],
                                    "parameter_enable": 0,
                                    "patching_rect": [ 50.0, 218.0, 50.0, 22.0 ]
                                }
                            },
                            {
                                "box": {
                                    "id": "obj-45",
                                    "maxclass": "newobj",
                                    "numinlets": 3,
                                    "numoutlets": 1,
                                    "outlettype": [ "" ],
                                    "patching_rect": [ 50.0, 361.0, 60.0, 22.0 ],
                                    "text": "clip 0 100"
                                }
                            },
                            {
                                "box": {
                                    "id": "obj-27",
                                    "maxclass": "newobj",
                                    "numinlets": 6,
                                    "numoutlets": 1,
                                    "outlettype": [ "" ],
                                    "patching_rect": [ 50.0, 286.0, 103.0, 22.0 ],
                                    "text": "scale 3.2 4. 0 100"
                                }
                            },
                            {
                                "box": {
                                    "comment": "",
                                    "id": "obj-46",
                                    "index": 1,
                                    "maxclass": "inlet",
                                    "numinlets": 0,
                                    "numoutlets": 1,
                                    "outlettype": [ "" ],
                                    "patching_rect": [ 50.0, 39.0, 30.0, 30.0 ]
                                }
                            },
                            {
                                "box": {
                                    "comment": "",
                                    "id": "obj-48",
                                    "index": 1,
                                    "maxclass": "outlet",
                                    "numinlets": 1,
                                    "numoutlets": 0,
                                    "patching_rect": [ 50.0, 663.0, 30.0, 30.0 ]
                                }
                            },
                            {
                                "box": {
                                    "id": "obj-16",
                                    "maxclass": "comment",
                                    "numinlets": 1,
                                    "numoutlets": 0,
                                    "patching_rect": [ 368.0, 44.0, 81.0, 20.0 ],
                                    "text": "mAh capacity"
                                }
                            },
                            {
                                "box": {
                                    "id": "obj-63",
                                    "maxclass": "newobj",
                                    "numinlets": 1,
                                    "numoutlets": 1,
                                    "outlettype": [ "" ],
                                    "patching_rect": [ 330.0, 591.0, 238.0, 22.0 ],
                                    "text": "expr int($f1) + int(($f1 - int($f1)) * 60) / 100."
                                }
                            },
                            {
                                "box": {
                                    "id": "obj-52",
                                    "maxclass": "newobj",
                                    "numinlets": 2,
                                    "numoutlets": 1,
                                    "outlettype": [ "float" ],
                                    "patching_rect": [ 330.0, 562.0, 39.0, 22.0 ],
                                    "text": "/ 150."
                                }
                            },
                            {
                                "box": {
                                    "id": "obj-51",
                                    "maxclass": "newobj",
                                    "numinlets": 2,
                                    "numoutlets": 1,
                                    "outlettype": [ "float" ],
                                    "patching_rect": [ 330.0, 502.0, 40.0, 22.0 ],
                                    "text": "* 150."
                                }
                            },
                            {
                                "box": {
                                    "id": "obj-50",
                                    "maxclass": "newobj",
                                    "numinlets": 2,
                                    "numoutlets": 1,
                                    "outlettype": [ "float" ],
                                    "patching_rect": [ 330.0, 454.0, 39.0, 22.0 ],
                                    "text": "/ 100."
                                }
                            }
                        ],
                        "lines": [
                            {
                                "patchline": {
                                    "destination": [ "obj-12", 0 ],
                                    "midpoints": [ 80.83333333333333, 174.0, 276.5, 174.0 ],
                                    "source": [ "obj-11", 2 ]
                                }
                            },
                            {
                                "patchline": {
                                    "destination": [ "obj-13", 0 ],
                                    "midpoints": [ 59.5, 135.0, 59.5, 135.0 ],
                                    "source": [ "obj-11", 0 ]
                                }
                            },
                            {
                                "patchline": {
                                    "destination": [ "obj-25", 0 ],
                                    "midpoints": [ 70.16666666666666, 174.0, 185.5, 174.0 ],
                                    "source": [ "obj-11", 1 ]
                                }
                            },
                            {
                                "patchline": {
                                    "destination": [ "obj-2", 0 ],
                                    "midpoints": [ 59.5, 210.0, 59.5, 210.0 ],
                                    "source": [ "obj-13", 0 ]
                                }
                            },
                            {
                                "patchline": {
                                    "destination": [ "obj-18", 0 ],
                                    "midpoints": [ 339.5, 72.0, 339.5, 72.0 ],
                                    "source": [ "obj-14", 0 ]
                                }
                            },
                            {
                                "patchline": {
                                    "destination": [ "obj-50", 0 ],
                                    "midpoints": [ 339.5, 306.0, 339.5, 306.0 ],
                                    "source": [ "obj-18", 0 ]
                                }
                            },
                            {
                                "patchline": {
                                    "destination": [ "obj-51", 1 ],
                                    "midpoints": [ 350.0, 441.0, 381.0, 441.0, 381.0, 489.0, 360.5, 489.0 ],
                                    "source": [ "obj-18", 1 ]
                                }
                            },
                            {
                                "patchline": {
                                    "destination": [ "obj-52", 1 ],
                                    "midpoints": [ 490.0, 549.0, 359.5, 549.0 ],
                                    "source": [ "obj-19", 1 ]
                                }
                            },
                            {
                                "patchline": {
                                    "destination": [ "obj-52", 0 ],
                                    "midpoints": [ 479.5, 549.0, 339.5, 549.0 ],
                                    "source": [ "obj-19", 0 ]
                                }
                            },
                            {
                                "patchline": {
                                    "destination": [ "obj-27", 0 ],
                                    "midpoints": [ 59.5, 243.0, 59.5, 243.0 ],
                                    "order": 1,
                                    "source": [ "obj-2", 0 ]
                                }
                            },
                            {
                                "patchline": {
                                    "destination": [ "obj-48", 0 ],
                                    "midpoints": [ 59.5, 273.0, 36.0, 273.0, 36.0, 648.0, 59.5, 648.0 ],
                                    "order": 0,
                                    "source": [ "obj-2", 0 ]
                                }
                            },
                            {
                                "patchline": {
                                    "destination": [ "obj-19", 0 ],
                                    "midpoints": [ 479.5, 72.0, 479.5, 72.0 ],
                                    "source": [ "obj-20", 0 ]
                                }
                            },
                            {
                                "patchline": {
                                    "destination": [ "obj-50", 0 ],
                                    "midpoints": [ 185.5, 441.0, 339.5, 441.0 ],
                                    "order": 0,
                                    "source": [ "obj-25", 0 ]
                                }
                            },
                            {
                                "patchline": {
                                    "destination": [ "obj-9", 0 ],
                                    "midpoints": [ 185.5, 423.0, 185.5, 423.0 ],
                                    "order": 1,
                                    "source": [ "obj-25", 0 ]
                                }
                            },
                            {
                                "patchline": {
                                    "destination": [ "obj-4", 0 ],
                                    "midpoints": [ 59.5, 309.0, 59.5, 309.0 ],
                                    "source": [ "obj-27", 0 ]
                                }
                            },
                            {
                                "patchline": {
                                    "destination": [ "obj-45", 0 ],
                                    "midpoints": [ 59.5, 348.0, 59.5, 348.0 ],
                                    "source": [ "obj-4", 0 ]
                                }
                            },
                            {
                                "patchline": {
                                    "destination": [ "obj-6", 0 ],
                                    "midpoints": [ 59.5, 384.0, 59.5, 384.0 ],
                                    "source": [ "obj-45", 0 ]
                                }
                            },
                            {
                                "patchline": {
                                    "destination": [ "obj-11", 0 ],
                                    "midpoints": [ 59.5, 72.0, 59.5, 72.0 ],
                                    "source": [ "obj-46", 0 ]
                                }
                            },
                            {
                                "patchline": {
                                    "destination": [ "obj-51", 0 ],
                                    "midpoints": [ 339.5, 477.0, 339.5, 477.0 ],
                                    "source": [ "obj-50", 0 ]
                                }
                            },
                            {
                                "patchline": {
                                    "destination": [ "obj-52", 0 ],
                                    "midpoints": [ 339.5, 525.0, 339.5, 525.0 ],
                                    "source": [ "obj-51", 0 ]
                                }
                            },
                            {
                                "patchline": {
                                    "destination": [ "obj-63", 0 ],
                                    "midpoints": [ 339.5, 585.0, 339.5, 585.0 ],
                                    "source": [ "obj-52", 0 ]
                                }
                            },
                            {
                                "patchline": {
                                    "destination": [ "obj-15", 0 ],
                                    "midpoints": [ 339.5, 615.0, 339.5, 615.0 ],
                                    "source": [ "obj-63", 0 ]
                                }
                            }
                        ]
                    },
                    "patching_rect": [ 575.0, 353.0, 55.0, 22.0 ],
                    "text": "p battery"
                }
            },
            {
                "box": {
                    "id": "obj-29",
                    "maxclass": "number",
                    "numinlets": 1,
                    "numoutlets": 2,
                    "outlettype": [ "", "bang" ],
                    "parameter_enable": 0,
                    "patching_rect": [ 666.0, 471.0, 50.0, 22.0 ]
                }
            },
            {
                "box": {
                    "id": "obj-19",
                    "linecount": 3,
                    "maxclass": "comment",
                    "numinlets": 1,
                    "numoutlets": 0,
                    "patching_rect": [ 693.0, 352.0, 103.0, 47.0 ],
                    "text": "PING\n\nDefault = 1000ms"
                }
            },
            {
                "box": {
                    "id": "obj-5",
                    "maxclass": "button",
                    "numinlets": 1,
                    "numoutlets": 1,
                    "outlettype": [ "bang" ],
                    "parameter_enable": 0,
                    "patching_rect": [ 666.0, 352.0, 24.0, 24.0 ]
                }
            },
            {
                "box": {
                    "id": "obj-43",
                    "maxclass": "comment",
                    "numinlets": 1,
                    "numoutlets": 0,
                    "patching_rect": [ 313.0, 501.0, 49.0, 20.0 ],
                    "text": "ACCEL"
                }
            },
            {
                "box": {
                    "id": "obj-38",
                    "maxclass": "comment",
                    "numinlets": 1,
                    "numoutlets": 0,
                    "patching_rect": [ 84.0, 501.0, 41.0, 20.0 ],
                    "text": "QUAT"
                }
            },
            {
                "box": {
                    "id": "obj-30",
                    "linecount": 6,
                    "maxclass": "comment",
                    "numinlets": 1,
                    "numoutlets": 0,
                    "patching_rect": [ 666.0, 509.0, 84.0, 87.0 ],
                    "text": "BATTERY\n\n100=Full \n101=Charging\n102=USB\n<10=Sleep"
                }
            },
            {
                "box": {
                    "id": "obj-6",
                    "linecount": 4,
                    "maxclass": "comment",
                    "numinlets": 1,
                    "numoutlets": 0,
                    "patching_rect": [ 575.0, 509.0, 63.0, 60.0 ],
                    "text": "VOLTAGE\n\n3.2 = low\n4.2 = high"
                }
            },
            {
                "box": {
                    "id": "obj-35",
                    "maxclass": "comment",
                    "numinlets": 1,
                    "numoutlets": 0,
                    "patching_rect": [ 192.0, 40.0, 60.0, 20.0 ],
                    "text": "Print data"
                }
            },
            {
                "box": {
                    "id": "obj-41",
                    "maxclass": "newobj",
                    "numinlets": 1,
                    "numoutlets": 1,
                    "outlettype": [ "" ],
                    "patching_rect": [ 271.0, 353.0, 85.0, 22.0 ],
                    "text": "vexpr $f1 / 20."
                }
            },
            {
                "box": {
                    "id": "obj-16",
                    "linecount": 5,
                    "maxclass": "comment",
                    "numinlets": 1,
                    "numoutlets": 0,
                    "patching_rect": [ 848.0, 509.0, 179.0, 74.0 ],
                    "text": "RUNTIME ESTIMATE\n\nh.mm (hour.minutes)\n\nDefault = 150 mAh Lipo Battery "
                }
            },
            {
                "box": {
                    "id": "obj-13",
                    "linecount": 8,
                    "maxclass": "comment",
                    "numinlets": 1,
                    "numoutlets": 0,
                    "patching_rect": [ 757.0, 509.0, 71.0, 114.0 ],
                    "text": "POWER\n\n0=Battery\n1=USB\n2=Init\n3=Low \n4=Full\n5=Charging"
                }
            },
            {
                "box": {
                    "candycane": 3,
                    "compatibility": 1,
                    "ghostbar": 3,
                    "id": "obj-18",
                    "maxclass": "multislider",
                    "numinlets": 1,
                    "numoutlets": 2,
                    "outlettype": [ "", "" ],
                    "parameter_enable": 0,
                    "patching_rect": [ 271.0, 394.0, 91.0, 99.0 ],
                    "setstyle": 3,
                    "signed": 1,
                    "size": 3,
                    "spacing": 4
                }
            },
            {
                "box": {
                    "format": 6,
                    "id": "obj-4",
                    "maxclass": "flonum",
                    "numinlets": 1,
                    "numoutlets": 2,
                    "outlettype": [ "", "bang" ],
                    "parameter_enable": 0,
                    "patching_rect": [ 848.0, 471.0, 50.0, 22.0 ]
                }
            },
            {
                "box": {
                    "format": 6,
                    "id": "obj-3",
                    "maxclass": "flonum",
                    "numinlets": 1,
                    "numoutlets": 2,
                    "outlettype": [ "", "bang" ],
                    "parameter_enable": 0,
                    "patching_rect": [ 575.0, 471.0, 50.0, 22.0 ]
                }
            },
            {
                "box": {
                    "id": "obj-26",
                    "maxclass": "toggle",
                    "numinlets": 1,
                    "numoutlets": 1,
                    "outlettype": [ "int" ],
                    "parameter_enable": 0,
                    "patching_rect": [ 165.0, 38.0, 24.0, 24.0 ]
                }
            },
            {
                "box": {
                    "id": "obj-22",
                    "maxclass": "newobj",
                    "numinlets": 2,
                    "numoutlets": 1,
                    "outlettype": [ "" ],
                    "patching_rect": [ 165.0, 115.0, 32.0, 22.0 ],
                    "text": "gate"
                }
            },
            {
                "box": {
                    "id": "obj-14",
                    "maxclass": "newobj",
                    "numinlets": 1,
                    "numoutlets": 0,
                    "patching_rect": [ 165.0, 154.0, 32.0, 22.0 ],
                    "text": "print"
                }
            },
            {
                "box": {
                    "id": "obj-2",
                    "maxclass": "number",
                    "numinlets": 1,
                    "numoutlets": 2,
                    "outlettype": [ "", "bang" ],
                    "parameter_enable": 0,
                    "patching_rect": [ 757.0, 471.0, 50.0, 22.0 ]
                }
            },
            {
                "box": {
                    "candycane": 3,
                    "compatibility": 1,
                    "contdata": 1,
                    "ghostbar": 3,
                    "id": "obj-34",
                    "maxclass": "multislider",
                    "numinlets": 1,
                    "numoutlets": 2,
                    "orientation": 0,
                    "outlettype": [ "", "" ],
                    "parameter_enable": 0,
                    "patching_rect": [ 34.0, 394.0, 91.0, 99.0 ],
                    "setstyle": 1,
                    "signed": 1,
                    "size": 4,
                    "spacing": 4
                }
            },
            {
                "box": {
                    "id": "obj-25",
                    "maxclass": "toggle",
                    "numinlets": 1,
                    "numoutlets": 1,
                    "outlettype": [ "int" ],
                    "parameter_enable": 0,
                    "patching_rect": [ 417.0, 392.0, 24.0, 24.0 ]
                }
            },
            {
                "box": {
                    "id": "obj-23",
                    "maxclass": "toggle",
                    "numinlets": 1,
                    "numoutlets": 1,
                    "outlettype": [ "int" ],
                    "parameter_enable": 0,
                    "patching_rect": [ 390.0, 392.0, 24.0, 24.0 ]
                }
            },
            {
                "box": {
                    "id": "obj-21",
                    "maxclass": "newobj",
                    "numinlets": 1,
                    "numoutlets": 3,
                    "outlettype": [ "", "", "FullPacket" ],
                    "patching_rect": [ 390.0, 353.0, 73.0, 22.0 ],
                    "text": "o.route /1 /2"
                }
            },
            {
                "box": {
                    "id": "obj-11",
                    "maxclass": "newobj",
                    "numinlets": 1,
                    "numoutlets": 10,
                    "outlettype": [ "", "", "", "", "", "", "", "", "", "FullPacket" ],
                    "patching_rect": [ 34.0, 192.0, 344.0, 22.0 ],
                    "text": "o.route /quat /euler /accel /button /light /battery /ping /uptime /ip"
                }
            },
            {
                "box": {
                    "id": "obj-10",
                    "maxclass": "newobj",
                    "numinlets": 1,
                    "numoutlets": 2,
                    "outlettype": [ "", "FullPacket" ],
                    "patching_rect": [ 34.0, 154.0, 59.0, 22.0 ],
                    "text": "o.route /1"
                }
            },
            {
                "box": {
                    "id": "obj-9",
                    "maxclass": "newobj",
                    "numinlets": 1,
                    "numoutlets": 2,
                    "outlettype": [ "", "FullPacket" ],
                    "patching_rect": [ 34.0, 115.0, 97.0, 22.0 ],
                    "text": "o.route /codecell"
                }
            },
            {
                "box": {
                    "id": "obj-8",
                    "maxclass": "newobj",
                    "numinlets": 1,
                    "numoutlets": 1,
                    "outlettype": [ "" ],
                    "patching_rect": [ 34.0, 39.0, 97.0, 22.0 ],
                    "text": "udpreceive 8000"
                }
            }
        ],
        "lines": [
            {
                "patchline": {
                    "destination": [ "obj-7", 0 ],
                    "source": [ "obj-1", 0 ]
                }
            },
            {
                "patchline": {
                    "destination": [ "obj-11", 0 ],
                    "midpoints": [ 43.5, 177.0, 43.5, 177.0 ],
                    "source": [ "obj-10", 0 ]
                }
            },
            {
                "patchline": {
                    "destination": [ "obj-103", 1 ],
                    "midpoints": [ 869.5, 378.0, 869.5, 378.0 ],
                    "source": [ "obj-107", 0 ]
                }
            },
            {
                "patchline": {
                    "destination": [ "obj-107", 0 ],
                    "midpoints": [ 296.27777777777777, 339.0, 869.5, 339.0 ],
                    "source": [ "obj-11", 7 ]
                }
            },
            {
                "patchline": {
                    "destination": [ "obj-116", 0 ],
                    "midpoints": [ 332.3888888888889, 339.0, 1000.5, 339.0 ],
                    "source": [ "obj-11", 8 ]
                }
            },
            {
                "patchline": {
                    "destination": [ "obj-124", 1 ],
                    "midpoints": [ 187.94444444444446, 339.0, 538.5, 339.0 ],
                    "source": [ "obj-11", 4 ]
                }
            },
            {
                "patchline": {
                    "destination": [ "obj-21", 0 ],
                    "midpoints": [ 151.83333333333331, 339.0, 399.5, 339.0 ],
                    "source": [ "obj-11", 3 ]
                }
            },
            {
                "patchline": {
                    "destination": [ "obj-34", 0 ],
                    "midpoints": [ 43.5, 216.0, 43.5, 216.0 ],
                    "source": [ "obj-11", 0 ]
                }
            },
            {
                "patchline": {
                    "destination": [ "obj-39", 0 ],
                    "midpoints": [ 79.61111111111111, 339.0, 162.5, 339.0 ],
                    "source": [ "obj-11", 1 ]
                }
            },
            {
                "patchline": {
                    "destination": [ "obj-41", 0 ],
                    "midpoints": [ 115.72222222222223, 339.0, 280.5, 339.0 ],
                    "source": [ "obj-11", 2 ]
                }
            },
            {
                "patchline": {
                    "destination": [ "obj-49", 0 ],
                    "midpoints": [ 224.05555555555554, 339.0, 584.5, 339.0 ],
                    "source": [ "obj-11", 5 ]
                }
            },
            {
                "patchline": {
                    "destination": [ "obj-5", 0 ],
                    "midpoints": [ 260.16666666666663, 339.0, 675.5, 339.0 ],
                    "source": [ "obj-11", 6 ]
                }
            },
            {
                "patchline": {
                    "destination": [ "obj-66", 0 ],
                    "midpoints": [ 368.5, 216.0, 368.5, 216.0 ],
                    "source": [ "obj-11", 9 ]
                }
            },
            {
                "patchline": {
                    "destination": [ "obj-113", 0 ],
                    "midpoints": [ 1000.5, 378.0, 1000.5, 378.0 ],
                    "source": [ "obj-116", 0 ]
                }
            },
            {
                "patchline": {
                    "destination": [ "obj-113", 0 ],
                    "midpoints": [ 1251.5, 396.0, 1000.5, 396.0 ],
                    "source": [ "obj-118", 0 ]
                }
            },
            {
                "patchline": {
                    "destination": [ "obj-1", 0 ],
                    "source": [ "obj-18", 0 ]
                }
            },
            {
                "patchline": {
                    "destination": [ "obj-23", 0 ],
                    "midpoints": [ 399.5, 378.0, 399.5, 378.0 ],
                    "source": [ "obj-21", 0 ]
                }
            },
            {
                "patchline": {
                    "destination": [ "obj-25", 0 ],
                    "midpoints": [ 426.5, 378.0, 426.5, 378.0 ],
                    "source": [ "obj-21", 1 ]
                }
            },
            {
                "patchline": {
                    "destination": [ "obj-14", 0 ],
                    "midpoints": [ 174.5, 138.0, 174.5, 138.0 ],
                    "source": [ "obj-22", 0 ]
                }
            },
            {
                "patchline": {
                    "destination": [ "obj-22", 0 ],
                    "midpoints": [ 174.5, 63.0, 174.5, 63.0 ],
                    "source": [ "obj-26", 0 ]
                }
            },
            {
                "patchline": {
                    "destination": [ "obj-37", 0 ],
                    "midpoints": [ 162.5, 378.0, 162.5, 378.0 ],
                    "source": [ "obj-39", 0 ]
                }
            },
            {
                "patchline": {
                    "destination": [ "obj-18", 0 ],
                    "midpoints": [ 280.5, 378.0, 280.5, 378.0 ],
                    "source": [ "obj-41", 0 ]
                }
            },
            {
                "patchline": {
                    "destination": [ "obj-2", 0 ],
                    "midpoints": [ 608.5, 456.0, 766.5, 456.0 ],
                    "source": [ "obj-49", 2 ]
                }
            },
            {
                "patchline": {
                    "destination": [ "obj-29", 0 ],
                    "midpoints": [ 596.5, 456.0, 675.5, 456.0 ],
                    "source": [ "obj-49", 1 ]
                }
            },
            {
                "patchline": {
                    "destination": [ "obj-3", 0 ],
                    "midpoints": [ 584.5, 378.0, 584.5, 378.0 ],
                    "source": [ "obj-49", 0 ]
                }
            },
            {
                "patchline": {
                    "destination": [ "obj-4", 0 ],
                    "midpoints": [ 620.5, 456.0, 857.5, 456.0 ],
                    "source": [ "obj-49", 3 ]
                }
            },
            {
                "patchline": {
                    "destination": [ "obj-113", 0 ],
                    "midpoints": [ 1148.5, 396.0, 1000.5, 396.0 ],
                    "source": [ "obj-51", 0 ]
                }
            },
            {
                "patchline": {
                    "destination": [ "obj-113", 0 ],
                    "midpoints": [ 1090.0, 396.0, 1000.5, 396.0 ],
                    "source": [ "obj-59", 0 ]
                }
            },
            {
                "patchline": {
                    "destination": [ "obj-59", 0 ],
                    "midpoints": [ 1090.0, 315.0, 1090.0, 315.0 ],
                    "source": [ "obj-68", 0 ]
                }
            },
            {
                "patchline": {
                    "destination": [ "obj-22", 1 ],
                    "midpoints": [ 43.5, 102.0, 187.5, 102.0 ],
                    "order": 0,
                    "source": [ "obj-8", 0 ]
                }
            },
            {
                "patchline": {
                    "destination": [ "obj-9", 0 ],
                    "midpoints": [ 43.5, 63.0, 43.5, 63.0 ],
                    "order": 1,
                    "source": [ "obj-8", 0 ]
                }
            },
            {
                "patchline": {
                    "destination": [ "obj-49", 2 ],
                    "midpoints": [ 620.5, 315.0, 620.5, 315.0 ],
                    "source": [ "obj-87", 0 ]
                }
            },
            {
                "patchline": {
                    "destination": [ "obj-49", 1 ],
                    "midpoints": [ 602.5, 276.0, 602.5, 276.0 ],
                    "source": [ "obj-88", 0 ]
                }
            },
            {
                "patchline": {
                    "destination": [ "obj-10", 0 ],
                    "midpoints": [ 43.5, 138.0, 43.5, 138.0 ],
                    "source": [ "obj-9", 0 ]
                }
            }
        ],
        "autosave": 0
    }
}